<?xml version="1.0" encoding="UTF-8"?>
<svg id="Layer_1" data-name="Layer 1" xmlns="http://www.w3.org/2000/svg" viewBox="0 0 342.75 351">
  <defs>
    <style>
      .cls-1 {
        fill: #fff;
      }
    </style>
  </defs>
  <path class="cls-1" d="M342.75,0v351H0V0h342.75ZM159.88,25.71c-3.06-3.52-13.39-12-17.47-14.33-2.93-1.67-5.98-3.74-9.17-1.23-6.89,7.38-13.14,15.34-19.46,23.19-10.66,13.26-27,32.09-35.38,46.19-.76,1.27-2.08,3.22-2.01,4.69.13,2.64,10.47,11.04,13.06,13.05,3.59,2.8,10.53,9.2,15.13,7.29l55.13-71.7c1.82-3.09,2.88-4.05.18-7.15ZM218.82,136.65c5.18,3.85,11.13,10.61,17.94,6.2,1.51-.98,10.52-13.29,11.12-15.07,1.13-3.36.92-5.28-1.37-7.95-14.36-10.27-29.59-19.26-44.25-29.09-16.43-11.03-32.16-23.41-49.61-32.77l-13.41,19.82c27.61,18.1,53.13,39.2,79.59,58.88ZM178.86,197.58v29.56c.66,1.07,1.49,1.03,2.58,1.16,4.91.58,12.81.11,18.03,0,3.22-.07,9.21-2.09,12-.08l75.48,109.37,2.26.73c12.79-.43,25.58.24,38.34.43.66,0,3.17-.3,3.25-.87l-75.62-112.22c-.19-1.66.2-.92,1.14-1.11,11.58-2.3,17.6-3.87,27.54-10.64,60.28-41.07,39.4-140.88-35.75-146.57l-62.52-.72.5,2.28,49.09,33.08c54.35,2.83,60.84,75.82,9.92,91.88-20.05,6.32-41.5,1.32-62.16,2.94-1.44.11-2.71.44-4.08.79ZM268.66,154.17H117.49v70.72c12.71,4.74,23.13,9.04,28.26,22.63,11.8,31.29-18.87,60.56-44.72,72.42v17.21l1.12,1.12h39.66c.49,0,6.5-4.31,8.34-5.13,15.75-7.03,43.81-6.97,59.54.11,2.07.93,7.58,5.02,9.2,5.02h37.04v-17.59c-29.52-18.81-44.92-52.06-64.74-79.7-6.07-5.66-13.1-3.52-20.25-5.94-.16-12.71-2.47-27.52-1.07-40.09.47-4.22,1.52-5.5,5.68-6.29,22.68-4.3,59.09,5.64,78.07-8.74,7.27-5.51,15.11-16.36,15.03-25.75ZM19.08,164.65l-1.01,1.24c-1.97,6.08,9.8,16.45,14.1,20.1,14.99,12.7,39.06,24.56,57.8,30.51,2.51.8,15.05,4.42,16.68,4.3,3.45-.25,1.36-6.53,1.4-8.75.26-13.37,2.01-31.98.5-44.82-.13-1.09-.09-1.92-1.16-2.58H19.08Z"/>
  <path d="M268.66,154.17c.08,9.39-7.77,20.25-15.03,25.75-18.98,14.38-55.39,4.44-78.07,8.74-4.16.79-5.21,2.07-5.68,6.29-1.4,12.57.91,27.38,1.07,40.09,7.15,2.43,14.18.28,20.25,5.94,19.82,27.64,35.22,60.89,64.74,79.7v17.59h-37.04c-1.61,0-7.13-4.09-9.2-5.02-15.73-7.08-43.8-7.15-59.54-.11-1.84.82-7.85,5.13-8.34,5.13h-39.66l-1.12-1.12v-17.21c25.85-11.85,56.52-41.13,44.72-72.42-5.13-13.59-15.55-17.89-28.26-22.63v-70.72h151.17Z"/>
  <path d="M178.86,197.58c1.37-.35,2.64-.67,4.08-.79,20.66-1.63,42.11,3.38,62.16-2.94,50.91-16.06,44.42-89.05-9.92-91.88l-49.09-33.08-.5-2.28,62.52.72c75.15,5.7,96.03,105.51,35.75,146.57-9.94,6.77-15.97,8.34-27.54,10.64-.94.19-1.33-.55-1.14,1.11l75.62,112.22c-.08.57-2.6.88-3.25.87-12.76-.19-25.55-.86-38.34-.43l-2.26-.73-75.48-109.37c-2.78-2-8.77,0-12,.08-5.22.12-13.12.58-18.03,0-1.09-.13-1.92-.09-2.58-1.16v-29.56Z"/>
  <path d="M159.88,25.71c2.7,3.1,1.64,4.06-.18,7.15l-55.13,71.7c-4.6,1.91-11.54-4.49-15.13-7.29-2.59-2.02-12.93-10.41-13.06-13.05-.07-1.48,1.25-3.42,2.01-4.69,8.38-14.1,24.72-32.93,35.38-46.19,6.32-7.86,12.57-15.81,19.46-23.19,3.19-2.51,6.24-.44,9.17,1.23,4.08,2.33,14.41,10.82,17.47,14.33Z"/>
  <path d="M19.08,164.65h88.31c1.07.66,1.03,1.49,1.16,2.58,1.51,12.83-.24,31.45-.5,44.82-.04,2.22,2.06,8.5-1.4,8.75-1.63.12-14.17-3.5-16.68-4.3-18.73-5.96-42.8-17.81-57.8-30.51-4.3-3.64-16.07-14.01-14.1-20.1l1.01-1.24Z"/>
  <path d="M218.82,136.65c-26.46-19.68-51.98-40.78-79.59-58.88l13.41-19.82c17.46,9.36,33.18,21.75,49.61,32.77,14.65,9.84,29.89,18.82,44.25,29.09,2.29,2.67,2.51,4.59,1.37,7.95-.6,1.78-9.61,14.09-11.12,15.07-6.8,4.42-12.75-2.34-17.94-6.2Z"/>
</svg>